<?xml version="1.0" standalone="no"?><!DOCTYPE svg PUBLIC "-//W3C//DTD SVG 1.1//EN" "http://www.w3.org/Graphics/SVG/1.1/DTD/svg11.dtd"><svg t="1565417123780" class="icon" viewBox="0 0 1024 1024" version="1.1" xmlns="http://www.w3.org/2000/svg" p-id="2760" xmlns:xlink="http://www.w3.org/1999/xlink" width="200" height="200"><defs><style type="text/css"></style></defs><path d="M746.666667 390.684444h-9.386667c-15.431111-112.426667-108.8-199.111111-221.724444-199.111111a224.213333 224.213333 0 0 0-207.644445 145.28h-4.48C171.164444 336.711111 64 447.573333 64 584.391111a249.884444 249.884444 0 0 0 100.622222 201.742222l29.226667-87.751111a166.257778 166.257778 0 0 1-44.515556-113.777778c0-89.315556 68.764444-161.991111 153.457778-162.275555h5.12a85.333333 85.333333 0 0 0 79.431111-54.257778A138.453333 138.453333 0 0 1 515.555556 277.333333c68.408889 0 127.431111 53.831111 137.173333 125.155556A85.333333 85.333333 0 0 0 737.208889 476.444444H746.666667c70.542222 0 128 60.728889 128 135.111112a138.382222 138.382222 0 0 1-42.666667 100.551111v101.688889A221.013333 221.013333 0 0 0 960 611.555556c0-122.097778-95.502222-220.871111-213.333333-220.871112z" p-id="2761" fill="#ffffff"></path><path d="M250.524444 832H192l103.111111-284.8h72.391111L467.555556 832h-61.582223l-21.333333-60.017778H272.071111z m36.977778-107.733333H369.066667l-38.471111-121.6h-1.564445zM556.871111 832h-60.017778V547.2h87.751111q115.484444-1.493333 115.484445 87.751111Q696.888889 718.222222 601.528889 722.702222h-44.657778z m0-237.084444v80.071111c3.057778 0 9.244444 0.497778 18.488889 1.564444q61.582222 6.186667 60.017778-41.6 0-41.528889-60.017778-40.035555a51.982222 51.982222 0 0 1-18.488889 0zM797.013333 547.2V832h-61.582222V547.2z" p-id="2762" fill="#ffffff"></path></svg>